<svg width="30" height="30" viewBox="0 0 30 30" fill="none" xmlns="http://www.w3.org/2000/svg">
<path d="M15.001 30L14.9919 29.9985H14.9678C10.1642 29.9985 7.09516 27.7135 6.79324 27.5816L1.13221 29.0599L2.64936 23.5331L2.28857 22.9645C0.794054 20.5749 0 17.8228 0 14.9889C0 1.65636 16.2207 -5.01068 25.6075 4.41294C34.9716 13.738 28.3972 30 15.001 30Z" fill="#4CAF50"/>
<path d="M23.2128 18.713L23.1992 18.8267C22.7448 18.5993 20.5317 17.5121 20.1196 17.362C19.1942 17.0178 19.4554 17.3074 17.6786 19.3513C17.4144 19.647 17.1517 19.6697 16.7034 19.4651C16.2505 19.2376 14.7967 18.76 13.0758 17.2134C11.7353 16.008 10.8355 14.5296 10.5698 14.0747C10.1275 13.3075 11.0529 13.1983 11.8953 11.5971C12.0462 11.2787 11.9692 11.0285 11.8575 10.8026C11.7443 10.5752 10.8431 8.34624 10.4657 7.45771C10.1034 6.5722 9.73049 6.68441 9.45121 6.68441C8.58168 6.6086 7.94614 6.62073 7.38607 7.20601C4.94956 9.89587 5.56397 12.6706 7.64874 15.6213C11.7458 21.0071 13.9287 21.9987 17.9201 23.3755C18.998 23.7197 19.9807 23.6712 20.7582 23.559C21.6247 23.421 23.4257 22.4657 23.8015 21.3968C24.1865 20.3278 24.1865 19.4408 24.0733 19.2361C23.9616 19.0314 23.6657 18.9177 23.2128 18.713Z" fill="#FAFAFA"/>
</svg>
